<svg 
  xmlns="http://www.w3.org/2000/svg" 
  aria-label="User"
  role="img"
  viewBox="0 0 512 512" 
>
    <path fill="#181717" d="M426.7,74.7H85.3C63.6,74.7,46,92.3,46,114v284c0,21.7,17.6,39.3,39.3,39.3h49.3v-13.8c-5.9-3.1-9.9-9.8-9.9-17.2 c0-11.2,9.1-20.3,20.3-20.3s20.3,9.1,20.3,20.3c0,7.4-4,14.1-9.9,17.2v13.8h184v-13.8c-5.9-3.1-9.9-9.8-9.9-17.2 c0-11.2,9.1-20.3,20.3-20.3s20.3,9.1,20.3,20.3c0,7.4-4,14.1-9.9,17.2v13.8h49.3c21.7,0,39.3-17.6,39.3-39.3V114 C450,99.3,448.4,74.7,426.7,74.7z"/>
    <g fill="#fff">
        <circle cx="256" cy="192" r="42.7"/>
        <path d="M331,298.7c0,0-20.2-42.7-74.7-42.7s-74.7,42.7-74.7,42.7v21.3h149.3V298.7z"/>
    </g>
</svg>
